<?xml version="1.0" encoding="UTF-8" standalone="no"?>
<!-- Created with Inkscape (http://www.inkscape.org/) -->

<svg
   xmlns:dc="http://purl.org/dc/elements/1.1/"
   xmlns:cc="http://creativecommons.org/ns#"
   xmlns:rdf="http://www.w3.org/1999/02/22-rdf-syntax-ns#"
   xmlns:svg="http://www.w3.org/2000/svg"
   xmlns="http://www.w3.org/2000/svg"
   xmlns:sodipodi="http://sodipodi.sourceforge.net/DTD/sodipodi-0.dtd"
   xmlns:inkscape="http://www.inkscape.org/namespaces/inkscape"
   width="32"
   height="32"
   id="svg3832"
   version="1.1"
   inkscape:version="0.91 r13725"
   viewBox="0 0 32 32"
   sodipodi:docname="logo.svg">
  <defs
     id="defs3834" />
  <sodipodi:namedview
     id="base"
     pagecolor="#ffffff"
     bordercolor="#666666"
     borderopacity="1.0"
     inkscape:pageopacity="0.0"
     inkscape:pageshadow="2"
     inkscape:zoom="11.197802"
     inkscape:cx="16"
     inkscape:cy="16"
     inkscape:current-layer="layer1"
     showgrid="true"
     inkscape:grid-bbox="true"
     inkscape:document-units="px"
     inkscape:window-width="1920"
     inkscape:window-height="1052"
     inkscape:window-x="0"
     inkscape:window-y="0"
     inkscape:window-maximized="1" />
  <metadata
     id="metadata3837">
    <rdf:RDF>
      <cc:Work
         rdf:about="">
        <dc:format>image/svg+xml</dc:format>
        <dc:type
           rdf:resource="http://purl.org/dc/dcmitype/StillImage" />
        <dc:title></dc:title>
      </cc:Work>
    </rdf:RDF>
  </metadata>
  <g
     id="layer1"
     inkscape:label="Layer 1"
     inkscape:groupmode="layer">
    <g
       transform="matrix(0.00804842,0,0,0.00804842,52.043948,16.079492)"
       id="layer1-6"
       inkscape:label="Calque 1">
      <path
         id="maple_leaf"
         d="m -4469.9953,-1987.7179 -305.6545,596.0373 c -34.6786,64.7765 -96.8183,58.7658 -158.9585,22.5831 l -221.2965,-119.7978 164.9403,915.49508 c 34.6799,167.25597 -76.5911,167.25597 -131.5231,94.9372 l -386.1775,-452.01215 -62.7001,229.54386 c -7.2268,30.14351 -39.0144,61.80384 -86.7115,54.26457 l -488.3367,-107.34762 128.2636,487.54991 c 27.4641,108.48469 48.8737,153.40151 -27.7187,182.01423 l -174.0546,85.531237 840.6365,713.912583 c 33.2704,26.99593 50.0911,75.57165 38.2367,119.55406 l -73.5748,252.43504 c 289.4471,-34.8799 548.9456,-66.1052 838.3853,-100.94587 25.7219,-0.33206 68.3668,22.52267 68.1856,53.49517 l -38.3435,924.8302 140.7261,0 -22.1561,-922.8414 c -0.1749,-30.9846 38.4985,-55.81603 64.2204,-55.48397 289.4397,34.84067 548.9384,66.06597 838.3855,100.94587 l -73.5747,-252.43504 c -11.8544,-43.98241 4.9662,-92.55813 38.2366,-119.55406 L -2719.9231,1.081017 -2893.9776,-84.45022 c -76.5925,-28.61272 -55.1828,-73.52954 -27.7188,-182.01423 l 128.2638,-487.54991 -488.3369,107.34762 c -47.6971,7.53927 -79.4847,-24.12106 -86.7116,-54.26457 l -62.7001,-229.54386 -386.1774,452.01215 c -54.9321,72.31877 -166.2031,72.31877 -131.5232,-94.9372 l 164.9401,-915.49508 -221.2962,119.7978 c -62.1431,36.1827 -124.2799,42.1934 -158.9585,-22.5831"
         style="fill:#ff0000"
         inkscape:connector-curvature="0" />
    </g>
  </g>
</svg>
